<svg width="261" height="259" viewBox="0 0 261 259" fill="none" xmlns="http://www.w3.org/2000/svg">
<path d="M249.394 90.4141C243.059 79.096 231.023 69.252 216.458 66.5596C201.783 63.8427 187.813 67.656 175.364 77.0248C180.458 62.8925 181.71 48.9306 176.081 35.6876C166.403 12.9418 142.634 0.673393 118.841 6.39945C95.8017 11.9428 79.7531 33.7627 81.5039 58.1167C81.9537 64.4275 83.6559 69.8368 85.2364 76.5375C71.1939 66.3037 54.197 62.6488 38.0998 68.2896C12.7869 77.1589 -0.453196 104.181 7.12124 129.765C13.8325 152.414 34.7077 166.315 58.6712 164.353C36.7381 178.949 29.6014 205.362 40.957 227.852C51.9721 249.659 78.3185 259.857 101.504 250.561C116.677 244.482 126.513 231.604 130.574 215.717C134.647 233.261 146.513 246.236 161.601 251.304C179.035 257.164 196.883 253.302 210.002 241.034C232.166 220.298 230.05 185.662 206.269 167.582C205.054 166.656 203.862 165.974 202.573 164.158C223.449 166.022 242.719 155.301 251.424 135.918C257.916 121.469 257.722 105.253 249.394 90.3897V90.4141Z" fill="white"/>
<path d="M117.671 1.53915C143.495 -4.67556 169.257 8.38043 180.173 32.5694L180.682 33.7306L180.683 33.7315C185.213 44.388 185.674 55.3329 183.576 66.1759C194.103 61.1483 205.509 59.4482 217.366 61.6427H217.367C233.395 64.6055 246.527 75.2965 253.559 87.6251C253.628 87.729 253.695 87.8352 253.756 87.9454C262.746 103.989 263.093 121.571 256.314 137.224L255.986 137.967C248.236 155.222 232.871 166.241 215.2 168.794C235.721 189.642 235.884 223.666 213.418 244.685L213.417 244.686C198.936 258.229 179.158 262.481 160.008 256.044V256.043C147.334 251.785 136.814 242.562 130.495 230.098C124.79 241.274 115.713 250.253 103.364 255.201L103.365 255.202C77.7622 265.467 48.6747 254.22 36.4946 230.106H36.4937C25.9788 209.281 29.9012 185.44 45.5562 168.884C25.1825 165.782 8.42966 151.779 2.32764 131.187V131.185C-5.97819 103.129 8.53522 73.3513 36.4468 63.5714C50.3755 58.6905 64.7835 60.1305 77.6226 66.2052C77.1131 63.7057 76.7078 61.1477 76.5171 58.4757L76.4409 57.2227C75.1459 30.9656 92.6224 7.56636 117.671 1.53915ZM171.48 37.6427C162.731 17.0828 141.363 6.12232 120.011 11.2608C99.7018 16.1473 85.3673 35.2045 86.4292 56.7315L86.4917 57.7579V57.7608C86.9036 63.5392 88.4216 68.2614 90.103 75.3897C90.5832 77.4255 89.7457 79.5449 88.0034 80.7022C86.2612 81.8595 83.9829 81.81 82.2925 80.5782C69.3443 71.1419 54.045 67.9998 39.7534 73.0079C17.0395 80.9666 5.07381 105.232 11.9165 128.346H11.9155C17.929 148.638 36.5686 161.146 58.2642 159.37C60.5362 159.184 62.6467 160.559 63.395 162.712C64.1433 164.865 63.3397 167.253 61.4419 168.516C41.529 181.767 35.2522 205.459 45.4204 225.598L45.8921 226.504C56.0075 245.38 79.2006 254.116 99.6441 245.92H99.645C113.096 240.53 121.995 229.09 125.73 214.479L125.788 214.272C126.428 212.15 128.396 210.693 130.629 210.718C132.934 210.743 134.924 212.342 135.445 214.587C139.092 230.295 149.517 241.72 162.57 246.349L163.194 246.565C178.913 251.848 194.832 248.375 206.587 237.382C226.466 218.783 224.584 187.787 203.244 171.563L203.241 171.56C202.365 170.893 200.344 169.655 198.497 167.053C197.368 165.462 197.267 163.361 198.238 161.669C199.209 159.978 201.075 159.005 203.018 159.178C221.855 160.86 239.066 151.232 246.864 133.869L247.134 133.256C252.687 120.443 252.441 106.251 245.183 93.1085C245.131 93.0262 245.079 92.9426 245.031 92.8565C239.344 82.6954 228.501 73.8709 215.549 71.4766L215.548 71.4757C202.409 69.0431 189.837 72.391 178.371 81.0196C176.604 82.3491 174.174 82.3609 172.395 81.0479C170.616 79.735 169.911 77.4092 170.661 75.3292C175.494 61.9206 176.452 49.341 171.48 37.6436V37.6427Z" fill="#FF94B6"/>
</svg>
