<svg width="262" height="259" viewBox="0 0 262 259" fill="none" xmlns="http://www.w3.org/2000/svg">
<path d="M250.368 90.4141C244.009 79.096 231.924 69.252 217.301 66.5596C202.568 63.8427 188.543 67.656 176.043 77.0248C181.158 62.8925 182.415 48.9306 176.764 35.6876C167.047 12.9418 143.184 0.673393 119.296 6.39945C96.1644 11.9428 80.052 33.7627 81.8097 58.1167C82.2613 64.4275 83.9702 69.8368 85.557 76.5375C71.4586 66.3037 54.394 62.6488 38.2327 68.2896C12.8189 77.1589 -0.473938 104.181 7.13067 129.765C13.8686 152.414 34.8271 166.315 58.886 164.353C36.8656 178.949 29.7004 205.362 41.1012 227.852C52.1602 249.659 78.6116 259.857 101.889 250.561C117.123 244.482 126.998 231.604 131.075 215.717C135.164 233.261 147.078 246.236 162.226 251.304C179.73 257.164 197.649 253.302 210.82 241.034C233.072 220.298 230.948 185.662 207.072 167.582C205.852 166.656 204.655 165.974 203.361 164.158C224.32 166.022 243.667 155.301 252.407 135.918C258.925 121.469 258.73 105.253 250.368 90.3897V90.4141Z" fill="#FF94B6"/>
<path d="M118.13 1.53788C144.032 -4.67096 169.889 8.36848 180.851 32.5623L181.361 33.7234L181.362 33.7244C185.913 44.3881 186.375 55.3409 184.265 66.1902C194.841 61.1506 206.299 59.4462 218.208 61.6424H218.207C234.288 64.6033 247.471 75.2881 254.531 87.6199C254.6 87.7229 254.665 87.8291 254.727 87.9383C263.754 103.985 264.102 121.573 257.294 137.229L256.965 137.973C249.182 155.233 233.757 166.247 216.026 168.796C236.62 189.644 236.784 223.673 214.229 244.691L214.228 244.692C199.693 258.231 179.85 262.477 160.639 256.046V256.045C147.908 251.785 137.338 242.549 130.995 230.061C125.269 241.259 116.149 250.254 103.742 255.205L103.741 255.204C78.061 265.458 48.8715 254.229 36.6418 230.113V230.112C26.0819 209.281 30.0235 185.44 45.7326 168.886C25.2886 165.788 8.46705 151.793 2.33806 131.191V131.19C-6.00606 103.118 8.58008 73.3418 36.5851 63.5682C50.5714 58.6866 65.0414 60.1319 77.9347 66.2185C77.4221 63.7152 77.0142 61.1529 76.8224 58.4764C74.8898 31.6979 92.6023 7.65588 118.13 1.53788ZM172.165 37.6512C163.521 17.4167 142.591 6.462 121.467 11.032L120.461 11.2615C100.051 16.1527 85.6694 35.2184 86.7346 56.7303L86.7971 57.7566V57.7596C87.2104 63.5359 88.7345 68.2556 90.423 75.3855C90.9046 77.4199 90.0691 79.5389 88.3293 80.698C86.5894 81.8572 84.3123 81.8118 82.6203 80.5838C69.6158 71.1441 54.243 67.9974 39.8801 73.0105C17.0578 80.9756 5.05894 105.244 11.924 128.341H11.923C17.958 148.625 36.6737 161.148 58.4797 159.37C60.7534 159.185 62.8641 160.562 63.6105 162.718C64.3567 164.873 63.5498 167.26 61.6486 168.52C41.6495 181.776 35.358 205.462 45.5607 225.59C55.4487 245.088 79.1609 254.253 100.035 245.917H100.036C113.551 240.523 122.484 229.079 126.232 214.474L126.29 214.267C126.931 212.148 128.899 210.693 131.13 210.718C133.433 210.743 135.422 212.339 135.945 214.582C139.662 230.533 150.404 242.076 163.813 246.562H163.814C179.61 251.851 195.605 248.372 207.411 237.375C227.367 218.779 225.481 187.794 204.054 171.568L204.051 171.565C203.172 170.898 201.144 169.662 199.29 167.06C198.157 165.471 198.053 163.367 199.023 161.674C199.993 159.98 201.861 159.005 203.805 159.178C222.737 160.861 240.022 151.221 247.849 133.862H247.85C253.699 120.895 253.564 106.466 246.163 93.117C246.11 93.0342 246.059 92.9497 246.01 92.8631C240.302 82.7041 229.412 73.8729 216.396 71.4764H216.395C203.19 69.0414 190.558 72.3936 179.042 81.0252C177.273 82.3509 174.844 82.3582 173.068 81.0428C171.291 79.7273 170.59 77.4014 171.342 75.323C176.194 61.917 177.155 49.3434 172.165 37.6512Z" fill="white"/>
</svg>
