<?xml version="1.0" encoding="UTF-8"?>
<svg id="_Слой_1" data-name="Слой 1" xmlns="http://www.w3.org/2000/svg" viewBox="0 0 477 640.58">
  <defs>
    <style>
      .cls-1 {
        fill: #fbebf1;
      }

      .cls-2 {
        fill: #fa286a;
      }
    </style>
  </defs>
  <path class="cls-2" d="M477,44.85v344.04l-224.92,251.7H44.85c-24.77,0-44.85-20.08-44.85-44.85V44.85C0,20.08,20.08,0,44.85,0h387.3c24.77,0,44.85,20.08,44.85,44.85Z"/>
  <path class="cls-1" d="M477,388.89l-224.92,251.7.31-228.48c.03-13.21,11.28-22.94,23.89-22.96l200.71-.26Z"/>
  <path class="cls-1" d="M241.99,162.36c-5.21-9.29-15.11-17.37-27.09-19.58-12.07-2.23-23.56.9-33.8,8.59,4.19-11.6,5.22-23.06.59-33.93-7.96-18.67-27.51-28.74-47.08-24.04-18.95,4.55-32.15,22.46-30.71,42.45.37,5.18,1.77,9.62,3.07,15.12-11.55-8.4-25.53-11.4-38.77-6.77-20.82,7.28-31.71,29.46-25.48,50.46,5.52,18.59,22.69,30,42.4,28.39-18.04,11.98-23.91,33.66-14.57,52.12,9.06,17.9,30.73,26.27,49.8,18.64,12.48-4.99,20.57-15.56,23.91-28.6,3.35,14.4,13.11,25.05,25.52,29.21,14.34,4.81,29.02,1.64,39.81-8.43,18.23-17.02,16.49-45.45-3.07-60.29-1-.76-1.98-1.32-3.04-2.81,17.17,1.53,33.02-7.27,40.18-23.18,5.34-11.86,5.18-25.17-1.67-37.37Z"/>
  <path class="cls-1" d="M401.8,309.6c-1.74-3.09-5.04-5.79-9.03-6.53-4.02-.74-7.85.3-11.26,2.86,1.4-3.87,1.74-7.68.2-11.31-2.65-6.22-9.17-9.58-15.69-8.01-6.31,1.52-10.71,7.48-10.23,14.15.12,1.73.59,3.21,1.02,5.04-3.85-2.8-8.51-3.8-12.92-2.26-6.94,2.42-10.57,9.82-8.49,16.82,1.84,6.2,7.56,10,14.13,9.46-6.01,3.99-7.97,11.22-4.86,17.37,3.02,5.97,10.24,8.75,16.59,6.21,4.16-1.66,6.86-5.19,7.97-9.53,1.12,4.8,4.37,8.35,8.5,9.73,4.78,1.6,9.67.55,13.27-2.81,6.08-5.67,5.49-15.15-1.02-20.09-.33-.25-.66-.44-1.01-.94,5.72.51,11-2.42,13.39-7.72,1.78-3.95,1.73-8.39-.56-12.45Z"/>
</svg>