<?xml version="1.0" encoding="UTF-8"?>
<svg id="_Слой_1" data-name="Слой 1" xmlns="http://www.w3.org/2000/svg" viewBox="0 0 465.61 366.34">
  <defs>
    <style>
      .cls-1 {
        fill: #fbebf1;
      }

      .cls-2 {
        fill: #131418;
      }

      .cls-3 {
        fill: #fa286a;
      }
    </style>
  </defs>
  <g>
    <polygon class="cls-2" points="157.97 164.32 103.66 164.45 103.59 103.99 54.24 104.07 54.27 164.24 0 164.43 0 .17 54.26 0 54.29 58.76 103.7 58.73 103.71 .08 158.02 .04 157.97 164.32"/>
    <polygon class="cls-3" points="105.59 245.04 56.02 244.75 55.9 366.2 0 366.22 0 196.91 161.7 196.9 161.51 366.31 105.5 366.34 105.59 245.04"/>
  </g>
  <g>
    <path class="cls-3" d="M465.61,25.67v196.74l-128.62,143.93h-118.51c-14.16,0-25.65-11.48-25.65-25.65V25.67C192.84,11.51,204.32.02,218.49.02h221.48c14.16,0,25.65,11.48,25.65,25.65Z"/>
    <path class="cls-1" d="M465.61,222.41l-128.62,143.93.18-130.65c.02-7.55,6.45-13.12,13.66-13.13l114.78-.15Z"/>
    <path class="cls-1" d="M331.22,92.87c-2.98-5.31-8.64-9.93-15.49-11.2-6.9-1.28-13.47.51-19.33,4.91,2.4-6.63,2.99-13.18.34-19.4-4.55-10.68-15.73-16.43-26.92-13.75-10.84,2.6-18.39,12.84-17.56,24.27.21,2.96,1.01,5.5,1.75,8.65-6.61-4.81-14.6-6.52-22.17-3.87-11.9,4.16-18.13,16.85-14.57,28.86,3.16,10.63,12.97,17.15,24.24,16.24-10.32,6.85-13.67,19.25-8.33,29.8,5.18,10.24,17.57,15.02,28.48,10.66,7.14-2.85,11.76-8.9,13.67-16.35,1.92,8.23,7.5,14.32,14.6,16.7,8.2,2.75,16.6.94,22.76-4.82,10.43-9.73,9.43-25.99-1.76-34.47-.57-.43-1.13-.76-1.74-1.61,9.82.88,18.88-4.16,22.98-13.25,3.05-6.78,2.96-14.39-.95-21.37Z"/>
    <path class="cls-1" d="M422.61,177.07c-.99-1.77-2.88-3.31-5.16-3.73-2.3-.42-4.49.17-6.44,1.64.8-2.21,1-4.39.11-6.47-1.52-3.56-5.24-5.48-8.97-4.58-3.61.87-6.13,4.28-5.85,8.09.07.99.34,1.83.58,2.88-2.2-1.6-4.86-2.17-7.39-1.29-3.97,1.39-6.04,5.61-4.86,9.62,1.05,3.54,4.32,5.72,8.08,5.41-3.44,2.28-4.56,6.41-2.78,9.93,1.73,3.41,5.86,5.01,9.49,3.55,2.38-.95,3.92-2.97,4.56-5.45.64,2.74,2.5,4.77,4.86,5.57,2.73.92,5.53.31,7.59-1.61,3.47-3.24,3.14-8.66-.58-11.49-.19-.14-.38-.25-.58-.54,3.27.29,6.29-1.39,7.66-4.42,1.02-2.26.99-4.8-.32-7.12Z"/>
  </g>
</svg>