<?xml version="1.0" encoding="UTF-8"?>
<svg id="_Слой_1" data-name="Слой 1" xmlns="http://www.w3.org/2000/svg" viewBox="0 0 1021.75 366.34">
  <defs>
    <style>
      .cls-1 {
        fill: #131418;
      }

      .cls-2 {
        fill: #fa286a;
      }
    </style>
  </defs>
  <g>
    <polygon class="cls-1" points="157.97 164.33 103.66 164.45 103.59 103.99 54.24 104.07 54.27 164.24 0 164.44 0 .18 54.26 0 54.29 58.77 103.7 58.73 103.71 .09 158.02 .04 157.97 164.33"/>
    <g>
      <polygon class="cls-1" points="511.9 119.09 540.8 119.33 540.92 .11 595.09 .03 595.04 164.29 374.3 164.41 374.28 .04 428.41 .04 428.36 119.1 457.75 119.21 457.76 .1 511.92 .03 511.9 119.09"/>
      <path class="cls-1" d="M292.57,142.95l-55.24-.1-7.29,21.47-56.14-.13,31-84.35L234.59.08l60.56-.05,61.02,164.12-56.45.36-7.15-21.55ZM279.7,102.94l-14.96-47.38-14.99,47.52,29.95-.14Z"/>
    </g>
    <path class="cls-1" d="M735.97,164.44l-7.22-21.63-55.14.07-7.02,21.53-56.29-.04L670.89.14l60.24-.14,33.15,87.93,15.08,41.06,12.75,35.37-56.14.08ZM715.79,102.95l-14.52-47.8-14.81,47.87,29.33-.07Z"/>
  </g>
  <g>
    <polygon class="cls-2" points="105.59 245.04 56.02 244.76 55.9 366.2 0 366.23 0 196.91 161.7 196.9 161.51 366.31 105.5 366.34 105.59 245.04"/>
    <g>
      <polygon class="cls-2" points="314.52 301.8 249.19 301.82 249.05 322.97 325.04 323.03 325.08 366.21 193.27 366.27 193.3 196.87 324.56 196.87 324.5 241.25 248.97 241.35 249 261.51 314.62 261.5 314.52 301.8"/>
      <g>
        <path class="cls-2" d="M643.74,343.52h-56.82s-7.52,22.63-7.52,22.63l-57.74.06,62.44-169.38,62.4.03,63.14,169.14-58.29.32-7.61-22.8ZM630.5,301.84l-15.23-48.32-15.35,48.93,30.58-.61Z"/>
        <path class="cls-2" d="M504.78,196.83l.1,169.31-55.79.18-.03-52.49c-18.49,7.39-37.51,9.38-56.61,5.1-18.3-3.87-32.83-16.24-39.08-33.8-3.82-10.37-5.06-20.83-4.74-31.94v-56.3s55.4-.07,55.4-.07l.19,60.3c.59,8.92,6.01,15.13,14.85,16.55,10.16,1.97,20.55-.59,29.99-5.29l.05-71.5,55.68-.06Z"/>
        <polygon class="cls-2" points="806.99 366.17 751.71 366.31 751.62 244.37 704.8 244.32 704.73 196.77 855.67 196.74 855.45 244.3 806.95 244.39 806.99 366.17"/>
        <path class="cls-2" d="M990.68,255.66c27.71,12.57,36.34,43.28,28.07,71.45-3.97,13.54-12.73,24.28-25.07,31.06-9.88,5.04-20.27,7.96-31.74,7.98l-86.27.13.07-169.46,55.6-.03.05,52.62,32.63.03c9.38.66,18.29,2.27,26.68,6.22ZM965.88,306.85c.27-7.09-4.72-12.74-11.32-12.83l-23.17-.3.05,29.17,21.62-.24c8.3-.09,14.2-6.76,12.83-15.8Z"/>
      </g>
    </g>
  </g>
</svg>