<?xml version="1.0" encoding="UTF-8"?>
<svg id="_Слой_1" data-name="Слой 1" xmlns="http://www.w3.org/2000/svg" viewBox="0 0 1021.75 562.57">
  <defs>
    <style>
      .cls-1 {
        fill: #fbebf1;
      }

      .cls-2 {
        fill: #131418;
      }

      .cls-3 {
        fill: #fa286a;
      }
    </style>
  </defs>
  <g>
    <g>
      <polygon class="cls-2" points="157.97 248.1 103.66 248.22 103.59 187.77 54.24 187.85 54.27 248.02 0 248.21 0 83.95 54.26 83.78 54.29 142.54 103.7 142.5 103.71 83.86 158.02 83.82 157.97 248.1"/>
      <g>
        <polygon class="cls-2" points="511.9 202.86 540.8 203.1 540.92 83.88 595.09 83.81 595.04 248.06 374.3 248.19 374.28 83.81 428.41 83.81 428.36 202.87 457.75 202.98 457.76 83.87 511.92 83.8 511.9 202.86"/>
        <path class="cls-2" d="M292.57,226.72l-55.24-.1-7.29,21.47-56.14-.13,31-84.35,29.69-79.76,60.56-.05,61.02,164.12-56.45.36-7.15-21.55ZM279.7,186.72l-14.96-47.38-14.99,47.52,29.95-.14Z"/>
      </g>
      <path class="cls-2" d="M735.97,248.21l-7.22-21.63-55.14.07-7.02,21.53-56.29-.04,60.59-164.23,60.24-.14,33.15,87.93,15.08,41.06,12.75,35.37-56.14.08ZM715.79,186.73l-14.52-47.8-14.81,47.87,29.33-.07Z"/>
    </g>
    <g>
      <polygon class="cls-3" points="105.59 328.82 56.02 328.53 55.9 449.97 0 450 0 280.69 161.7 280.68 161.51 450.09 105.5 450.12 105.59 328.82"/>
      <g>
        <polygon class="cls-3" points="314.52 385.57 249.19 385.59 249.05 406.74 325.04 406.8 325.08 449.98 193.27 450.04 193.3 280.64 324.56 280.65 324.5 325.02 248.97 325.12 249 345.28 314.62 345.27 314.52 385.57"/>
        <g>
          <path class="cls-3" d="M643.74,427.29h-56.82s-7.52,22.63-7.52,22.63l-57.74.06,62.44-169.38,62.4.03,63.14,169.14-58.29.32-7.61-22.8ZM630.5,385.62l-15.23-48.32-15.35,48.93,30.58-.61Z"/>
          <path class="cls-3" d="M504.78,280.6l.1,169.31-55.79.18-.03-52.49c-18.49,7.39-37.51,9.38-56.61,5.1-18.3-3.87-32.83-16.24-39.08-33.8-3.82-10.37-5.06-20.83-4.74-31.94v-56.3s55.4-.07,55.4-.07l.19,60.3c.59,8.92,6.01,15.13,14.85,16.55,10.16,1.97,20.55-.59,29.99-5.29l.05-71.5,55.68-.06Z"/>
          <polygon class="cls-3" points="806.99 449.94 751.71 450.08 751.62 328.14 704.8 328.09 704.73 280.54 855.67 280.51 855.45 328.08 806.95 328.16 806.99 449.94"/>
          <path class="cls-3" d="M990.68,339.43c27.71,12.57,36.34,43.28,28.07,71.45-3.97,13.54-12.73,24.28-25.07,31.06-9.88,5.04-20.27,7.96-31.74,7.98l-86.27.13.07-169.46,55.6-.03.05,52.62,32.63.03c9.38.66,18.29,2.27,26.68,6.22ZM965.88,390.62c.27-7.09-4.72-12.74-11.32-12.83l-23.17-.3.05,29.17,21.62-.24c8.3-.09,14.2-6.76,12.83-15.8Z"/>
        </g>
      </g>
    </g>
    <g>
      <path class="cls-2" d="M892.84,562.49l-8.68-.05-.23-17.49c-7.79-.08-15.04-2.27-19.41-7.24-5.09-5.79-6.33-13.57-4.67-21.28,2.28-10.63,12.5-16.54,23.79-16.24l.2-17.88,8.77-.03.31,18.04c14.17-.59,24.71,8.43,24.96,21.37.26,13.78-9.92,23.82-25.06,23.06v17.75ZM884.09,508.22c-10.5-.61-16.33,6.76-15.79,15.61.49,8.02,7.13,13.72,16,13.12l-.21-28.73ZM893.1,536.99c10.67-.04,15.72-7.27,15.42-15.3-.3-8-6.72-13.97-15.78-13.48l.35,28.77Z"/>
      <polygon class="cls-2" points="269.63 535.64 286.98 535.86 287.02 500.95 295.8 500.95 295.78 544.12 234.25 544.27 234.26 500.95 243.21 500.92 243.21 535.86 260.63 535.91 260.91 500.97 269.68 500.76 269.63 535.64"/>
      <path class="cls-2" d="M43.08,544.42l-34.81-.05-.62,10.34c-.12,2-6.08,1.44-7.65.36l.02-19.11c12.31,1.73,10.02-19.37,11.28-35.13l33.42-.08.06,34.85c2.5.62,3.97.55,6.64.23l.04,19.54-8.37.2v-11.15ZM35.92,535.94l-.07-26.94-16.4-.24c-.25,9.48-.26,18.15-4.21,27.11l20.68.08Z"/>
      <path class="cls-2" d="M754.67,562.37v-61.41s8.41-.2,8.41-.2l1.2,5c5.89-5.74,13.2-7.32,21.16-4.8,6.42,2.03,11.91,7.8,13.6,15.61,1.77,8.2.08,17.33-6.23,23.09-8.33,7.62-21.13,7.67-28.74-.9l-.56,23.35c-2.92.49-5.41.62-8.83.27ZM790.33,522.75c.29-9.26-6.57-15.25-14.54-14.64s-12.84,7.11-12.37,15.22c.46,8.01,5.9,13.45,13.49,13.45,7.28,0,13.15-5.39,13.42-14.03Z"/>
      <path class="cls-2" d="M167.37,543.87c-3.1.68-6.08.61-8.98.05l-.05-29.08-16.43,23.83-15.69-22.73-.44,28.27-8.79.15-.08-42.92c2.44-.9,7.35-1.44,9.71.08l13.52,19.18c1.53,2.17,5.45-1.3,6.43-2.78l11.2-16.95,9.53-.03.05,42.95Z"/>
      <path class="cls-2" d="M961.15,514.81l-22.23,29.33-9.03-.14v-42.7c3.12-.9,6.14-.63,9.05-.38l.41,28.79,22.75-29.41,8.29.02.58,9.8v25.3c-.01,3.19.3,6.2-1.19,8.84l-8.2-.51-.43-28.95Z"/>
      <path class="cls-2" d="M435.69,529.86l-10.55,14.21-10.28-.13,10.61-15.12c-6.13-2.51-9.55-7.25-9.01-13.4-.65-7.19,4.36-13.95,11.53-14.07l26.24-.45-.02,43.17h-9.13s-.14-14.07-.14-14.07l-9.26-.14ZM445.19,521.82l-.08-12.82c-4.9-.49-9.91-.83-14.8.08-3.99.74-5.53,4.46-4.87,7.9.53,2.81,3.15,5.19,6.79,5.12l12.96-.28Z"/>
      <path class="cls-2" d="M698.91,501.03l.08,42.63c-3.31.92-6.16.82-9.12-.06l-.22-28.62-22.31,28.87c-2.76.67-5.5.51-8.88.11l-.1-43,9.05-.04.51,28.72,10.79-14.21,11.25-14.47c3.16-.47,5.62-.56,8.96.06Z"/>
      <path class="cls-2" d="M1013.08,530.11c-3.93-.62-7-.47-10.56,0l-9.67,13.86c-3.83.33-7.08.56-10.85-.01l10.34-15.11c-6.91-3.69-9.43-10.07-8.18-16.41,1.36-6.92,7.33-11.54,14.87-11.57l22.71-.08-.02,43.64-8.75-.34.1-13.99ZM1012.94,522.2l-.06-13.57-13.65.24c-3.96.07-6.42,3.73-6.26,7.12.14,3,2.61,5.99,6.24,6.04l13.73.17Z"/>
      <path class="cls-2" d="M384.05,530.15c-4.36,3.39-6.49,9.47-10.14,13.73l-10.81.1,11.02-15.36c-7.52-2.2-9.89-8.72-9.06-15.79.79-6.67,6.61-11.88,14.31-11.91l23.1-.09.1,43.21h-8.97s-.06-14.1-.06-14.1c-2.25.04-6.23-.74-9.48.21ZM393.69,522.16l-.1-13.41-13.09.05c-4.25.02-6.8,3.54-6.65,7.12s2.67,6.15,6.67,6.17l13.17.07Z"/>
      <path class="cls-2" d="M104.65,522.5c0,12.66-10.26,22.92-22.92,22.92s-22.92-10.26-22.92-22.92,10.26-22.92,22.92-22.92,22.92,10.26,22.92,22.92ZM95.19,523.88c.84-9-5.55-15.73-13.35-15.81-7.51-.08-13.41,6.04-13.59,14.11s4.92,14.11,12.44,14.63c7.1.49,13.7-4.34,14.5-12.92Z"/>
      <path class="cls-2" d="M822.99,545.17c-7.85-.09-13.28-4.69-14.15-11.15-.97-7.21,3.1-12.87,10.62-14.98l18.54-1.27c1.65-3.97-2.35-8.68-6.23-9.58-5.33-1.24-10.11.66-14.14,3.8-1.44,1.07-7.2-1.45-6.78-3.31,3.68-8.2,14.32-9.6,22.34-8.5,8.7,1.2,14.39,7.67,14.26,16.4l-.4,27.39c-3.15.44-5.3.51-7.11-.01-1.27-.37-1.82-3.17-2.24-4.46-4.6,4.29-8.76,5.74-14.71,5.67ZM838.57,524.99l-15.13.34c-3.99.09-6.18,3.87-5.53,7.44,1.05,5.73,11.56,6.51,16.84,2.21,2.66-2.18,4.09-5.35,3.82-9.98Z"/>
      <path class="cls-2" d="M593.63,522.49c0,12.67-10.27,22.93-22.93,22.93s-22.93-10.27-22.93-22.93,10.27-22.93,22.93-22.93,22.93,10.27,22.93,22.93ZM584.19,523.81c.9-9.34-5.8-15.99-14.02-15.76-7.85.22-13.48,6.8-13.02,15.16.43,7.75,5.63,13.41,12.87,13.65,7.14.24,13.36-4.66,14.17-13.06Z"/>
      <path class="cls-2" d="M193.17,545.06c-7.88-.66-12.74-5.61-13.05-12.17-.34-7.08,4.13-12.55,11.63-13.95,5.83-1.09,11.57-.91,17.84-.66.73-4.57-1.34-7.97-4.87-9.42-5.88-2.42-11.83-.49-16.44,3.85-2.66-1.21-4.62-2.82-5.88-5.06,5.85-6.87,14.49-8.82,23.07-7.27,7.58,1.37,13.17,7.12,13.2,15.07l.11,28.25c-3.13.93-5.36.81-8.3-.03-.16-2.03.09-3.31-.96-5.22-4.16,5.4-9.62,7.18-16.35,6.62ZM209.76,524.98l-15.05.37c-3.89.1-6.07,3.93-5.48,7.41.95,5.62,10.74,6.83,16.8,2.27,2.81-2.12,4.16-5.32,3.72-10.05Z"/>
      <polygon class="cls-2" points="351.24 544.14 342.08 544.08 342.12 526.42 320.66 526.31 320.38 544.12 311.51 544.36 311.41 500.84 320.49 500.91 320.69 518.13 341.77 518.23 342.15 500.92 351.22 500.92 351.24 544.14"/>
      <polygon class="cls-2" points="526.6 508.93 505.17 508.94 505.03 544.15 496.15 544.32 496.16 500.79 535.48 500.8 535.36 544.07 526.48 544.17 526.6 508.93"/>
      <path class="cls-2" d="M617.95,508.71l-2.4,25.8c-.75,8.06-9,12.19-16.47,10.01l-.06-8.5c4.88.88,8.21-1.82,8.55-6.36l2.19-28.84,33.12-.1.11,43.27-9.01.08.02-34.95-16.06-.41Z"/>
      <polygon class="cls-2" points="723.7 508.82 723.59 544.25 714.63 544.06 714.53 500.82 744.46 500.77 744.49 508.77 723.7 508.82"/>
    </g>
  </g>
  <g>
    <path class="cls-3" d="M1021.75,17.38v133.34l-87.17,97.55h-80.32c-9.6,0-17.38-7.78-17.38-17.38V17.38c0-9.6,7.78-17.38,17.38-17.38h150.11c9.6,0,17.38,7.78,17.38,17.38Z"/>
    <path class="cls-1" d="M1021.75,150.72l-87.17,97.55.12-88.55c.01-5.12,4.37-8.89,9.26-8.9l77.79-.1Z"/>
    <path class="cls-1" d="M930.67,62.92c-2.02-3.6-5.86-6.73-10.5-7.59-4.68-.86-9.13.35-13.1,3.33,1.63-4.5,2.02-8.94.23-13.15-3.09-7.24-10.66-11.14-18.25-9.32-7.34,1.76-12.46,8.7-11.9,16.45.15,2.01.69,3.73,1.19,5.86-4.48-3.26-9.89-4.42-15.03-2.62-8.07,2.82-12.29,11.42-9.88,19.56,2.14,7.21,8.79,11.63,16.43,11-6.99,4.64-9.27,13.05-5.65,20.2,3.51,6.94,11.91,10.18,19.3,7.23,4.84-1.93,7.97-6.03,9.27-11.08,1.3,5.58,5.08,9.71,9.89,11.32,5.56,1.87,11.25.63,15.43-3.27,7.07-6.59,6.39-17.62-1.19-23.37-.39-.29-.77-.51-1.18-1.09,6.65.59,12.8-2.82,15.57-8.98,2.07-4.6,2.01-9.75-.65-14.48Z"/>
    <path class="cls-1" d="M992.6,119.99c-.67-1.2-1.95-2.24-3.5-2.53-1.56-.29-3.04.12-4.36,1.11.54-1.5.67-2.98.08-4.38-1.03-2.41-3.55-3.71-6.08-3.1-2.45.59-4.15,2.9-3.97,5.48.05.67.23,1.24.4,1.95-1.49-1.09-3.3-1.47-5.01-.87-2.69.94-4.1,3.81-3.29,6.52.71,2.4,2.93,3.87,5.48,3.67-2.33,1.55-3.09,4.35-1.88,6.73,1.17,2.31,3.97,3.39,6.43,2.41,1.61-.64,2.66-2.01,3.09-3.69.43,1.86,1.69,3.23,3.3,3.77,1.85.62,3.75.21,5.14-1.09,2.35-2.2,2.13-5.87-.4-7.79-.13-.1-.26-.17-.39-.36,2.22.2,4.26-.94,5.19-2.99.69-1.53.67-3.25-.22-4.83Z"/>
  </g>
</svg>