<?xml version="1.0" encoding="UTF-8"?>
<svg id="_Слой_1" data-name="Слой 1" xmlns="http://www.w3.org/2000/svg" viewBox="0 0 477 640.58">
  <defs>
    <style>
      .cls-1 {
        fill: #fbebf1;
      }
    </style>
  </defs>
  <path class="cls-1" d="M432.15,0H44.85C20.08,0,0,20.08,0,44.85v550.88c0,24.77,20.08,44.85,44.85,44.85h207.24l224.91-251.7V44.85c0-24.77-20.08-44.85-44.85-44.85ZM243.66,199.72c-7.16,15.91-23.01,24.71-40.18,23.18,1.06,1.49,2.04,2.05,3.04,2.81,19.56,14.84,21.3,43.27,3.07,60.29-10.79,10.07-25.46,13.24-39.81,8.43-12.41-4.17-22.17-14.81-25.52-29.21-3.34,13.03-11.43,23.6-23.91,28.59-19.07,7.63-40.75-.74-49.8-18.64-9.34-18.46-3.48-40.14,14.57-52.12-19.71,1.61-36.88-9.8-42.4-28.39-6.23-21,4.66-43.19,25.48-50.46,13.25-4.63,27.22-1.64,38.77,6.77-1.29-5.5-2.69-9.95-3.07-15.13-1.44-19.99,11.76-37.9,30.71-42.45,19.58-4.7,39.12,5.37,47.08,24.04,4.64,10.88,3.61,22.33-.58,33.93,10.23-7.69,21.72-10.82,33.79-8.59,11.98,2.22,21.89,10.3,27.1,19.58,6.84,12.2,7,25.51,1.66,37.37ZM343.89,303.55c4.41-1.55,9.07-.55,12.92,2.25-.43-1.83-.9-3.31-1.02-5.04-.48-6.66,3.91-12.63,10.23-14.14,6.52-1.57,13.04,1.79,15.69,8.01,1.54,3.62,1.2,7.44-.2,11.31,3.41-2.57,7.24-3.61,11.27-2.87,3.99.74,7.29,3.43,9.02,6.53,2.28,4.06,2.34,8.5.56,12.45-2.39,5.3-7.67,8.23-13.39,7.72.35.5.68.69,1.01.94,6.52,4.94,7.1,14.42,1.02,20.09-3.59,3.35-8.48,4.41-13.26,2.81-4.14-1.39-7.39-4.94-8.51-9.74-1.11,4.35-3.8,7.87-7.96,9.53-6.36,2.55-13.58-.24-16.6-6.21-3.11-6.15-1.16-13.37,4.86-17.37-6.57.54-12.29-3.26-14.13-9.46-2.08-7,1.55-14.39,8.49-16.81ZM262.12,614.34l.28-202.21c0-8.01,7.23-12.97,13.9-12.99l178.33-.23-192.51,215.43Z"/>
</svg>