<?xml version="1.0" encoding="UTF-8"?>
<svg id="_Слой_1" data-name="Слой 1" xmlns="http://www.w3.org/2000/svg" viewBox="0 0 1021.75 450.12">
  <defs>
    <style>
      .cls-1 {
        fill: #fbebf1;
      }

      .cls-2 {
        fill: #131418;
      }

      .cls-3 {
        fill: #fa286a;
      }
    </style>
  </defs>
  <g>
    <g>
      <polygon class="cls-2" points="157.97 248.1 103.66 248.22 103.59 187.77 54.24 187.85 54.27 248.02 0 248.21 0 83.95 54.26 83.78 54.29 142.54 103.7 142.5 103.71 83.86 158.02 83.82 157.97 248.1"/>
      <g>
        <polygon class="cls-2" points="511.9 202.86 540.8 203.1 540.92 83.88 595.09 83.81 595.04 248.06 374.3 248.19 374.28 83.81 428.41 83.81 428.36 202.87 457.75 202.98 457.76 83.87 511.92 83.8 511.9 202.86"/>
        <path class="cls-2" d="M292.57,226.72l-55.24-.1-7.29,21.47-56.14-.13,31-84.35,29.69-79.76,60.56-.05,61.02,164.12-56.45.36-7.15-21.55ZM279.7,186.72l-14.96-47.38-14.99,47.52,29.95-.14Z"/>
      </g>
      <path class="cls-2" d="M735.97,248.21l-7.22-21.63-55.14.07-7.02,21.53-56.29-.04,60.59-164.23,60.24-.14,33.15,87.93,15.08,41.06,12.75,35.37-56.14.08ZM715.79,186.73l-14.52-47.8-14.81,47.87,29.33-.07Z"/>
    </g>
    <g>
      <polygon class="cls-3" points="105.59 328.82 56.02 328.53 55.9 449.97 0 450 0 280.69 161.7 280.68 161.51 450.09 105.5 450.12 105.59 328.82"/>
      <g>
        <polygon class="cls-3" points="314.52 385.57 249.19 385.59 249.05 406.74 325.04 406.8 325.08 449.98 193.27 450.04 193.3 280.64 324.56 280.65 324.5 325.02 248.97 325.12 249 345.28 314.62 345.27 314.52 385.57"/>
        <g>
          <path class="cls-3" d="M643.74,427.29h-56.82s-7.52,22.63-7.52,22.63l-57.74.06,62.44-169.38,62.4.03,63.14,169.14-58.29.32-7.61-22.8ZM630.5,385.62l-15.23-48.32-15.35,48.93,30.58-.61Z"/>
          <path class="cls-3" d="M504.78,280.6l.1,169.31-55.79.18-.03-52.49c-18.49,7.39-37.51,9.38-56.61,5.1-18.3-3.87-32.83-16.24-39.08-33.8-3.82-10.37-5.06-20.83-4.74-31.94v-56.3s55.4-.07,55.4-.07l.19,60.3c.59,8.92,6.01,15.13,14.85,16.55,10.16,1.97,20.55-.59,29.99-5.29l.05-71.5,55.68-.06Z"/>
          <polygon class="cls-3" points="806.99 449.94 751.71 450.08 751.62 328.14 704.8 328.09 704.73 280.54 855.67 280.51 855.45 328.08 806.95 328.16 806.99 449.94"/>
          <path class="cls-3" d="M990.68,339.43c27.71,12.57,36.34,43.28,28.07,71.45-3.97,13.54-12.73,24.28-25.07,31.06-9.88,5.04-20.27,7.96-31.74,7.98l-86.27.13.07-169.46,55.6-.03.05,52.62,32.63.03c9.38.66,18.29,2.27,26.68,6.22ZM965.88,390.62c.27-7.09-4.72-12.74-11.32-12.83l-23.17-.3.05,29.17,21.62-.24c8.3-.09,14.2-6.76,12.83-15.8Z"/>
        </g>
      </g>
    </g>
  </g>
  <g>
    <path class="cls-3" d="M1021.75,17.38v133.34l-87.17,97.55h-80.32c-9.6,0-17.38-7.78-17.38-17.38V17.38c0-9.6,7.78-17.38,17.38-17.38h150.11c9.6,0,17.38,7.78,17.38,17.38Z"/>
    <path class="cls-1" d="M1021.75,150.72l-87.17,97.55.12-88.55c.01-5.12,4.37-8.89,9.26-8.9l77.79-.1Z"/>
    <path class="cls-1" d="M930.67,62.92c-2.02-3.6-5.86-6.73-10.5-7.59-4.68-.86-9.13.35-13.1,3.33,1.63-4.5,2.02-8.94.23-13.15-3.09-7.24-10.66-11.14-18.25-9.32-7.34,1.76-12.46,8.7-11.9,16.45.15,2.01.69,3.73,1.19,5.86-4.48-3.26-9.89-4.42-15.03-2.62-8.07,2.82-12.29,11.42-9.88,19.56,2.14,7.21,8.79,11.63,16.43,11-6.99,4.64-9.27,13.05-5.65,20.2,3.51,6.94,11.91,10.18,19.3,7.23,4.84-1.93,7.97-6.03,9.27-11.08,1.3,5.58,5.08,9.71,9.89,11.32,5.56,1.87,11.25.63,15.43-3.27,7.07-6.59,6.39-17.62-1.19-23.37-.39-.29-.77-.51-1.18-1.09,6.65.59,12.8-2.82,15.57-8.98,2.07-4.6,2.01-9.75-.65-14.48Z"/>
    <path class="cls-1" d="M992.6,119.99c-.67-1.2-1.95-2.24-3.5-2.53-1.56-.29-3.04.12-4.36,1.11.54-1.5.67-2.98.08-4.38-1.03-2.41-3.55-3.71-6.08-3.1-2.45.59-4.15,2.9-3.97,5.48.05.67.23,1.24.4,1.95-1.49-1.09-3.3-1.47-5.01-.87-2.69.94-4.1,3.81-3.29,6.52.71,2.4,2.93,3.87,5.48,3.67-2.33,1.55-3.09,4.35-1.88,6.73,1.17,2.31,3.97,3.39,6.43,2.41,1.61-.64,2.66-2.01,3.09-3.69.43,1.86,1.69,3.23,3.3,3.77,1.85.62,3.75.21,5.14-1.09,2.35-2.2,2.13-5.87-.4-7.79-.13-.1-.26-.17-.39-.36,2.22.2,4.26-.94,5.19-2.99.69-1.53.67-3.25-.22-4.83Z"/>
  </g>
</svg>